Coordinates
version=1
nRows=27
nColumns=19
inDegrees=yes

Units are S.I. units (second, meters, Newtons, ...)
If the header above contains a line with 'inDegrees', this indicates whether rotational values are in degrees (yes) or radians (no).

endheader
time	pelvis_tilt	pelvis_list	pelvis_rotation	pelvis_tx	pelvis_ty	pelvis_tz	hip_flexion_r	hip_adduction_r	hip_rotation_r	knee_angle_r	knee_angle_r_beta	ankle_angle_r	hip_flexion_l	hip_adduction_l	hip_rotation_l	knee_angle_l	knee_angle_l_beta	ankle_angle_l
     20.00000000	     -3.95723999	     -3.55327888	      7.65243243	      0.88487186	      0.95597326	     -0.45097176	      7.08684615	      7.71262366	     -9.15641897	      8.75916755	      0.15287631	      6.21692996	     35.73064522	     -8.51929071	     -3.88034602	     47.26094298	      0.82485906	     -1.21692424
     20.01000000	     -4.07315602	     -3.52989431	      7.78523665	      0.88294505	      0.95584520	     -0.45093350	      6.80776163	      7.73442166	     -9.10941657	      8.74377684	      0.15260769	      6.77841330	     35.71582768	     -8.40388514	     -4.47494811	     44.75871396	      0.78118693	     -1.18019629
     20.02000000	     -4.22217047	     -3.48886645	      7.94326981	      0.88088167	      0.95574457	     -0.45108893	      6.60207457	      7.69181391	     -9.34200703	      8.75003514	      0.15271692	      7.01463660	     35.66948108	     -8.17450081	     -4.97099086	     42.13356862	      0.73536950	     -1.29183563
     20.03000000	     -4.36004212	     -3.44040688	      8.03788972	      0.87898761	      0.95569450	     -0.45122464	      6.33211589	      7.66297669	     -9.42762328	      8.67083714	      0.15133466	      7.20818544	     35.51604695	     -7.95421159	     -5.53944086	     39.44175384	      0.68838847	     -1.45024360
     20.04000000	     -4.50904059	     -3.39328637	      8.18616346	      0.87696765	      0.95564915	     -0.45147165	      6.14876605	      7.61309505	     -9.56200910	      8.72221005	      0.15223128	      7.48017176	     35.29869449	     -7.69886389	     -6.25637152	     36.59723084	      0.63874218	     -1.50599230
     20.05000000	     -4.64984842	     -3.34590286	      8.32576367	      0.87503577	      0.95550020	     -0.45168073	      5.95168579	      7.58272481	     -9.62164491	      8.76645352	      0.15300348	      7.81941256	     35.03136976	     -7.37432972	     -6.81131196	     33.70071405	      0.58818842	     -1.87456016
     20.06000000	     -4.80515887	     -3.28921039	      8.40404983	      0.87302116	      0.95531653	     -0.45200693	      5.77747083	      7.51315861	     -9.57630730	      8.85233892	      0.15450246	      8.17244348	     34.72718575	     -7.02963287	     -7.38426148	     30.82480421	      0.53799432	     -2.05030606
     20.07000000	     -4.95765933	     -3.21452237	      8.51083226	      0.87111560	      0.95519493	     -0.45257207	      5.59643725	      7.39265487	     -9.79818545	      8.92141870	      0.15570813	      8.31026069	     34.28428578	     -6.55226915	     -7.75022663	     27.75096884	      0.48434578	     -2.25816201
     20.08000000	     -5.09541619	     -3.13787260	      8.62403530	      0.86935465	      0.95508803	     -0.45310539	      5.39695006	      7.28499756	    -10.01117845	      9.01294557	      0.15730558	      8.45334725	     33.80003700	     -6.03324042	     -7.98506083	     24.66454545	      0.43047753	     -2.57250447
     20.09000000	     -5.21533079	     -3.02279542	      8.70049084	      0.86764843	      0.95494448	     -0.45393404	      5.13473289	      7.15270703	    -10.04331137	      9.04938362	      0.15794154	      8.86575987	     33.22665669	     -5.44524274	     -8.19234317	     21.57556939	      0.37656472	     -3.00706627
     20.10000000	     -5.32474342	     -2.94611894	      8.76758689	      0.86603055	      0.95480270	     -0.45475657	      4.85513444	      7.03566561	    -10.28506305	      9.04711065	      0.15790187	      8.85878086	     32.57530484	     -4.84511807	     -8.10193556	     18.44128713	      0.32186118	     -3.41548899
     20.11000000	     -5.43201517	     -2.86088027	      8.81756290	      0.86448014	      0.95450706	     -0.45563258	      4.62275180	      6.92554887	    -10.18179460	      9.23243306	      0.16113635	      9.59264008	     31.94158856	     -4.22646353	     -7.74158710	     15.44534075	      0.26957205	     -3.88009206
     20.12000000	     -5.53804732	     -2.74592010	      8.78258296	      0.86304651	      0.95427081	     -0.45664838	      4.42560519	      6.75742773	    -10.25729149	      9.46599720	      0.16521282	      9.91316335	     31.17817945	     -3.60644490	     -7.20293268	     12.35530641	      0.21564078	     -4.57986279
     20.13000000	     -5.62274435	     -2.65316517	      8.72540381	      0.86173138	      0.95388925	     -0.45757905	      4.16400245	      6.61219528	    -10.31285646	      9.61979924	      0.16789717	     10.12488946	     30.43591314	     -3.05135171	     -6.26190237	      9.48671562	      0.16557442	     -5.14965469
     20.14000000	     -5.67978612	     -2.57148743	      8.69546065	      0.86059255	      0.95340961	     -0.45859178	      3.87692672	      6.48532529	    -10.36019451	      9.79046741	      0.17087589	     10.36231496	     29.66859597	     -2.55530005	     -4.91872270	      6.79614679	      0.11861514	     -5.63573720
     20.15000000	     -5.71394248	     -2.50340843	      8.59026739	      0.85973661	      0.95292511	     -0.45941913	      3.55538634	      6.40830943	    -10.11491871	      9.99817290	      0.17450104	     10.95419349	     28.89737694	     -2.20702760	     -3.24598040	      4.36914071	      0.07625589	     -6.03700076
     20.16000000	     -5.75070507	     -2.42354984	      8.48094681	      0.85889940	      0.95239660	     -0.46052156	      3.23718693	      6.25406800	    -10.32154877	     10.19339473	      0.17790830	     10.95079601	     28.07451916	     -1.91376471	     -1.52191032	      2.00884689	      0.03506099	     -6.50171045
     20.17000000	     -5.79220748	     -2.39973032	      8.42985718	      0.85795802	      0.95162570	     -0.46127647	      3.00194224	      6.19888830	    -10.30460108	     10.51538102	      0.18352802	     11.32946725	     27.74734871	     -1.77644263	      0.16675457	      0.73302738	      0.01279374	     -6.34395684
     20.18000000	     -5.86683173	     -2.38565149	      8.45534935	      0.85680760	      0.95081046	     -0.46221826	      2.85869312	      6.15291603	    -10.24295726	     10.92695207	      0.19071129	     11.88692368	     27.85459333	     -1.62077238	      1.87482692	      0.39036383	      0.00681313	     -5.54132893
     20.19000000	     -5.91501129	     -2.36404716	      8.42221971	      0.85582437	      0.95007851	     -0.46316360	      2.68435759	      6.09678417	    -10.14292510	     11.34976150	      0.19809071	     12.33563554	     27.92855855	     -1.48400823	      2.99235551	      0.26710548	      0.00466187	     -4.80141635
     20.20000000	     -5.95669881	     -2.36399358	      8.38858269	      0.85503848	      0.94929556	     -0.46417479	      2.49388394	      6.05360809	    -10.06667815	     11.76329558	      0.20530824	     12.67104666	     27.92699715	     -1.37419769	      3.89119193	      0.21394281	      0.00373401	     -4.22032687
     20.21000000	     -5.95576669	     -2.28306208	      8.22196622	      0.85452065	      0.94867161	     -0.46549340	      2.20002291	      5.89023878	     -9.99208774	     12.08720694	      0.21096156	     12.71599483	     27.74099899	     -1.24229519	      4.28319721	      0.18990288	      0.00331443	     -4.02722326
     20.22000000	     -5.94432838	     -2.22467865	      8.08662676	      0.85429915	      0.94802417	     -0.46693501	      1.99790208	      5.74166451	     -9.78858267	     12.71450002	      0.22190989	     13.53974517	     27.43636501	     -1.11793960	      4.62455702	      0.19412479	      0.00338812	     -3.75227519
     20.23000000	     -5.87491176	     -2.13218566	      7.85753390	      0.85457477	      0.94761321	     -0.46843707	      1.58589045	      5.56964623	     -9.68764851	     13.06428963	      0.22801487	     13.58629153	     26.93297779	     -1.01371561	      4.72592796	      0.21528695	      0.00375747	     -3.91178594
     20.24000000	     -5.81844194	     -2.02202247	      7.53238031	      0.85488569	      0.94714543	     -0.46996881	      1.33410858	      5.35087694	     -9.29707599	     13.74308996	      0.23986217	     14.19894640	     26.38059910	     -0.93076181	      4.54644199	      0.26116469	      0.00455818	     -4.49008379
     20.25000000	     -5.70556805	     -1.87123477	      7.11918099	      0.85571401	      0.94683431	     -0.47181620	      0.93457076	      5.05256723	     -8.95095824	     14.29682540	      0.24952668	     14.52142291	     25.61740926	     -0.80747925	      4.18021360	      0.36779932	      0.00641931	     -4.72841270
     20.26000000	     -5.59963578	     -1.72489028	      6.71799176	      0.85658489	      0.94653705	     -0.47358423	      0.58480251	      4.75023763	     -8.67914265	     14.89673958	      0.25999715	     14.71924002	     24.90320559	     -0.68069634	      3.94854196	      0.58216037	      0.01016062	     -5.40711033
